<svg version="1.1" id="Layer_1" xmlns="http://www.w3.org/2000/svg" xmlns:xlink="http://www.w3.org/1999/xlink" x="0px" y="0px"
	 width="100%" viewBox="0 0 96 74" enable-background="new 0 0 96 74" xml:space="preserve">
<path fill="#FFFCFD" opacity="1.000000" stroke="none" 
	d="
M62.000000,75.000000 
	C41.333332,75.000000 21.166666,75.000000 1.000000,75.000000 
	C1.000000,50.333332 1.000000,25.666666 1.000000,1.000000 
	C33.000000,1.000000 65.000000,1.000000 97.000000,1.000000 
	C97.000000,25.666666 97.000000,50.333332 97.000000,75.000000 
	C85.500000,75.000000 74.000000,75.000000 62.000000,75.000000 
M38.971024,8.477344 
	C32.359432,12.303837 25.710571,16.068476 19.168564,20.010454 
	C17.902159,20.773546 16.245028,22.168730 16.154503,23.376272 
	C15.803286,28.061245 16.011574,32.788162 16.011574,38.214779 
	C26.142313,32.377144 35.569580,27.172588 44.740982,21.550631 
	C48.536648,19.223934 51.446831,18.804495 55.452618,21.392141 
	C63.393085,26.521498 71.768234,30.979616 79.986099,35.676022 
	C81.166603,36.350670 82.471458,36.807732 84.331772,37.639606 
	C84.331772,33.289597 84.091408,29.791960 84.399246,26.343260 
	C84.708290,22.880974 83.412628,20.909321 80.384819,19.292873 
	C73.795624,15.775124 66.931946,12.515741 61.028088,8.034127 
	C53.475208,2.300738 46.729568,1.799515 38.971024,8.477344 
M62.427994,32.066723 
	C59.702034,30.477896 56.882259,29.027578 54.275810,27.262295 
	C51.526447,25.400225 49.232609,25.302877 46.244946,27.151817 
	C38.199245,32.130962 30.063450,37.018044 21.647739,41.324814 
	C16.933414,43.737385 15.303968,46.764122 15.913939,51.866653 
	C16.482002,56.618629 20.223370,58.920708 24.433924,56.492523 
	C31.914566,52.178513 39.428371,47.914646 46.782337,43.392433 
	C49.256630,41.870907 51.097286,41.869904 53.566647,43.384136 
	C60.926441,47.897217 68.393814,52.246239 75.964706,56.393673 
	C77.402435,57.181278 79.807640,57.413486 81.247978,56.759705 
	C85.651253,54.761024 85.818871,45.639626 81.617157,43.138950 
	C75.481636,39.487366 69.254616,35.989525 62.427994,32.066723 
M31.096903,59.527012 
	C30.080545,60.196205 29.064188,60.865398 27.614723,61.819756 
	C30.676729,63.654816 33.385197,64.958855 35.720871,66.749237 
	C39.662792,69.770859 43.429359,70.129837 47.204941,66.739365 
	C49.623867,64.567162 51.598042,65.788322 53.877117,67.039665 
	C55.775555,68.082016 58.439243,69.718941 59.950600,69.101509 
	C64.314163,67.318871 68.266914,64.530647 73.060654,61.741898 
	C65.482857,57.348656 58.698612,53.270424 51.732990,49.529964 
	C50.659851,48.953701 48.553917,49.560173 47.266544,50.253075 
	C42.009418,53.082626 36.884640,56.158066 31.096903,59.527012 
z"/>
<path fill="#E2415A" opacity="1.000000" stroke="none" 
	d="
M39.283863,8.285334 
	C46.729568,1.799515 53.475208,2.300738 61.028088,8.034127 
	C66.931946,12.515741 73.795624,15.775124 80.384819,19.292873 
	C83.412628,20.909321 84.708290,22.880974 84.399246,26.343260 
	C84.091408,29.791960 84.331772,33.289597 84.331772,37.639606 
	C82.471458,36.807732 81.166603,36.350670 79.986099,35.676022 
	C71.768234,30.979616 63.393085,26.521498 55.452618,21.392141 
	C51.446831,18.804495 48.536648,19.223934 44.740982,21.550631 
	C35.569580,27.172588 26.142313,32.377144 16.011574,38.214779 
	C16.011574,32.788162 15.803286,28.061245 16.154503,23.376272 
	C16.245028,22.168730 17.902159,20.773546 19.168564,20.010454 
	C25.710571,16.068476 32.359432,12.303837 39.283863,8.285334 
z"/>
<path fill="#E2415A" opacity="1.000000" stroke="none" 
	d="
M62.747299,32.246433 
	C69.254616,35.989525 75.481636,39.487366 81.617157,43.138950 
	C85.818871,45.639626 85.651253,54.761024 81.247978,56.759705 
	C79.807640,57.413486 77.402435,57.181278 75.964706,56.393673 
	C68.393814,52.246239 60.926441,47.897217 53.566647,43.384136 
	C51.097286,41.869904 49.256630,41.870907 46.782337,43.392433 
	C39.428371,47.914646 31.914566,52.178513 24.433924,56.492523 
	C20.223370,58.920708 16.482002,56.618629 15.913939,51.866653 
	C15.303968,46.764122 16.933414,43.737385 21.647739,41.324814 
	C30.063450,37.018044 38.199245,32.130962 46.244946,27.151817 
	C49.232609,25.302877 51.526447,25.400225 54.275810,27.262295 
	C56.882259,29.027578 59.702034,30.477896 62.747299,32.246433 
z"/>
<path fill="#E3425B" opacity="1.000000" stroke="none" 
	d="
M31.404007,59.334976 
	C36.884640,56.158066 42.009418,53.082626 47.266544,50.253075 
	C48.553917,49.560173 50.659851,48.953701 51.732990,49.529964 
	C58.698612,53.270424 65.482857,57.348656 73.060654,61.741898 
	C68.266914,64.530647 64.314163,67.318871 59.950600,69.101509 
	C58.439243,69.718941 55.775555,68.082016 53.877117,67.039665 
	C51.598042,65.788322 49.623867,64.567162 47.204941,66.739365 
	C43.429359,70.129837 39.662792,69.770859 35.720871,66.749237 
	C33.385197,64.958855 30.676729,63.654816 27.614723,61.819756 
	C29.064188,60.865398 30.080545,60.196205 31.404007,59.334976 
z"/>
</svg>