<svg version="1.1" id="Layer_1" xmlns="http://www.w3.org/2000/svg" xmlns:xlink="http://www.w3.org/1999/xlink" x="0px" y="0px"
	 width="100%" viewBox="0 0 397 91" enable-background="new 0 0 397 91" xml:space="preserve">
<path fill="#FEFEFE" opacity="1.000000" stroke="none" 
	d="
M291.000000,92.000000 
	C194.000015,92.000000 97.500023,92.000000 1.000026,92.000000 
	C1.000017,61.666683 1.000017,31.333364 1.000009,1.000034 
	C133.333298,1.000023 265.666595,1.000023 397.999939,1.000011 
	C397.999939,31.333298 397.999939,61.666595 397.999969,91.999947 
	C362.500000,92.000000 327.000000,92.000000 291.000000,92.000000 
M51.771858,20.268738 
	C46.158928,23.528276 40.496586,26.707542 34.971104,30.109125 
	C33.735603,30.869719 32.229958,32.354664 32.137871,33.601349 
	C31.799503,38.182213 32.003666,42.803150 32.003666,48.059166 
	C34.002556,46.982227 35.442253,46.248852 36.841839,45.445583 
	C45.358608,40.557495 53.944519,35.782238 62.332779,30.682188 
	C65.117737,28.988939 67.156174,28.877834 69.998947,30.606812 
	C78.812813,35.967411 87.827927,40.997768 96.784065,46.122875 
	C97.826714,46.719521 98.989052,47.106998 100.508263,47.771935 
	C100.508263,43.501396 100.292633,39.832031 100.572212,36.200794 
	C100.824409,32.925266 99.681015,31.048666 96.740051,29.520681 
	C90.985825,26.531057 85.457314,23.108047 79.824440,19.883509 
	C75.349007,17.321548 70.830437,12.743948 66.380203,12.802450 
	C61.697720,12.864005 57.073689,17.371506 51.771858,20.268738 
M85.448868,46.072830 
	C79.968826,42.927391 74.580475,39.600380 68.948235,36.756363 
	C67.423225,35.986305 64.793686,35.999554 63.296825,36.809563 
	C54.671917,41.476822 46.377579,46.766560 37.676525,51.276840 
	C33.020374,53.690407 31.286295,56.688293 31.905254,61.826824 
	C32.486046,66.648514 36.180542,68.987206 40.416481,66.542953 
	C47.905338,62.221680 55.414520,57.929470 62.784866,53.412430 
	C65.240105,51.907700 67.070129,51.873329 69.566490,53.412464 
	C76.923561,57.948467 84.455353,62.203335 91.955719,66.503777 
	C96.167641,68.918755 100.050102,66.607948 100.576851,61.885235 
	C101.142471,56.814041 99.728653,53.372643 94.742447,51.362377 
	C91.688675,50.131199 88.949379,48.120014 85.448868,46.072830 
M86.452957,70.140800 
	C80.697777,66.823616 75.001305,63.396397 69.143906,60.270771 
	C67.771828,59.538605 65.475693,59.113983 64.251549,59.764725 
	C57.392910,63.410698 50.732491,67.429565 43.364712,71.691101 
	C47.156216,73.940849 50.544464,75.662926 53.601006,77.848831 
	C56.463879,79.896233 58.992889,79.845032 61.573986,77.712761 
	C64.700653,75.129776 67.590935,75.260712 70.918533,77.611488 
	C72.411224,78.666008 75.058037,79.446396 76.573990,78.838112 
	C80.234917,77.369110 83.574554,75.066368 86.937263,72.932060 
	C87.325638,72.685562 87.041237,71.379089 86.452957,70.140800 
M132.643585,51.863194 
	C135.206024,52.154675 139.405670,51.633801 140.027954,52.887947 
	C141.998627,56.859619 144.622604,56.076607 147.968658,55.735954 
	C144.448669,47.756813 141.193680,40.128147 137.658798,32.631447 
	C137.119766,31.488298 135.292175,30.331470 134.047607,30.317265 
	C132.806793,30.303097 130.929306,31.426401 130.399841,32.553242 
	C126.821205,40.169399 123.526299,47.918873 120.067108,55.790180 
	C123.322899,56.030613 126.376373,57.071766 127.784935,52.926125 
	C128.029297,52.206924 130.368378,52.199440 132.643585,51.863194 
M191.579865,53.047253 
	C195.691574,45.945175 193.494904,38.061073 186.778442,37.052681 
	C182.568558,36.420620 178.186539,36.935005 174.024094,36.935005 
	C174.024094,46.045982 174.024094,54.336498 174.024094,62.643890 
	C175.932770,62.643890 177.619461,62.643890 179.668427,62.643890 
	C179.668427,59.999191 179.668427,57.724705 179.668427,55.450214 
	C179.928436,55.887070 180.188461,56.323925 180.448471,56.760780 
	C183.976517,55.710667 187.504578,54.660553 191.579865,53.047253 
M156.532059,37.434635 
	C154.672455,37.302578 152.812866,37.170525 150.818604,37.028904 
	C150.818604,45.569450 150.813873,53.383450 150.830322,61.197403 
	C150.831314,61.666676 151.001282,62.135601 151.105728,62.671974 
	C152.898529,62.671974 154.585464,62.671974 156.384720,62.671974 
	C156.516312,60.067169 156.630920,57.798557 156.747833,55.484325 
	C163.423218,56.869370 166.946304,55.878586 169.212494,51.894981 
	C171.471741,47.923561 171.418335,43.804169 168.622757,40.203289 
	C165.738113,36.487690 161.814987,35.760384 156.532059,37.434635 
M263.786926,47.983372 
	C264.374908,52.698017 266.956635,55.683632 271.712799,56.109386 
	C275.509674,56.449268 279.361267,56.177990 283.304871,56.177990 
	C283.304871,49.412861 283.304871,43.339878 283.304871,37.178902 
	C280.630554,37.178902 278.183777,37.452896 275.818848,37.129078 
	C267.751892,36.024513 264.228271,38.876598 263.786926,47.983372 
M214.096359,51.104717 
	C218.703003,59.631149 226.552780,54.266644 232.927887,56.178551 
	C232.927887,49.438660 232.927887,43.393532 232.927887,36.973755 
	C230.302902,37.094570 227.902252,37.559322 225.606476,37.248783 
	C216.171997,35.972637 211.455902,41.142265 214.096359,51.104717 
M346.313782,52.743832 
	C349.196991,48.577881 349.352112,44.260719 346.248596,40.296448 
	C343.556213,36.857368 339.645538,35.874500 335.486938,37.094898 
	C331.241211,38.340870 328.792633,41.437843 328.522766,45.849152 
	C328.283661,49.757679 329.742249,53.069839 333.405731,54.949261 
	C337.878784,57.244007 342.058136,56.612465 346.313782,52.743832 
M325.672577,35.192261 
	C325.672577,33.610592 325.672577,32.028923 325.672577,30.323547 
	C319.472168,30.323547 313.712921,30.323547 307.762573,30.323547 
	C307.762573,32.268139 307.762573,33.972942 307.762573,35.705254 
	C309.757202,35.878017 311.367188,36.017464 313.406433,36.194092 
	C313.406433,42.868122 313.406433,49.301373 313.406433,55.837532 
	C315.643280,55.837532 317.417267,55.837532 319.661652,55.837532 
	C319.661652,49.201088 319.661652,42.775658 319.661652,36.180786 
	C321.735931,36.013489 323.359222,35.882565 325.672577,35.192261 
M355.921539,54.960922 
	C363.436005,57.760338 369.981445,54.754189 370.955627,48.056129 
	C371.626129,43.446175 368.988129,38.874744 364.734711,37.275890 
	C360.266357,35.596230 354.883636,37.386219 352.511810,41.340523 
	C349.792786,45.873688 350.714417,50.342079 355.921539,54.960922 
M256.446228,44.955875 
	C254.943176,44.156322 253.440125,43.356770 251.937073,42.557220 
	C252.161926,42.298988 252.386780,42.040760 252.611649,41.782528 
	C254.986298,41.939522 257.360931,42.096516 260.161407,42.281658 
	C258.642639,37.555954 255.622665,36.133404 252.144394,36.856415 
	C250.030991,37.295719 247.023178,39.014069 246.544388,40.745937 
	C244.706757,47.392841 251.880157,47.273136 256.181549,51.334923 
	C251.807114,50.993645 248.875305,50.764919 245.046677,50.466225 
	C247.666687,55.727833 251.002426,57.157036 254.811295,56.010651 
	C257.034271,55.341602 259.952118,53.385353 260.406921,51.491745 
	C260.826294,49.745586 258.373352,47.309566 256.446228,44.955875 
M202.856720,50.642349 
	C202.203522,44.785931 205.679993,42.410835 210.932419,41.670059 
	C210.803604,39.892258 210.700027,38.462845 210.530869,36.128067 
	C207.697449,37.253391 205.385895,38.171452 204.355316,38.580750 
	C201.571991,37.796696 199.537872,37.223686 197.195374,36.563808 
	C197.195374,43.539886 197.195374,49.600895 197.195374,55.717529 
	C199.119324,55.717529 200.827744,55.717529 202.856628,55.717529 
	C202.856628,54.138199 202.856628,52.839096 202.856720,50.642349 
M374.138916,34.698990 
	C374.138916,41.744968 374.138916,48.790951 374.138916,55.824715 
	C376.420807,55.824715 378.020325,55.824715 379.721008,55.824715 
	C379.721008,47.121445 379.721008,38.613270 379.721008,30.120298 
	C376.738159,29.983767 373.380188,28.882113 374.138916,34.698990 
M287.217102,55.062706 
	C288.978271,55.472610 290.739471,55.882519 292.716553,56.342678 
	C292.716553,47.107338 292.716553,38.598137 292.716553,29.930590 
	C290.796143,30.018997 289.187561,30.093050 287.147430,30.186970 
	C287.147430,38.318970 287.147430,46.222794 287.217102,55.062706 
M236.808838,47.483734 
	C236.808838,50.248718 236.808838,53.013702 236.808838,56.063477 
	C239.120850,55.952995 240.846725,55.870522 242.556122,55.788834 
	C242.556122,49.327145 242.556122,43.275391 242.556122,37.292366 
	C240.513046,37.292366 238.779144,37.292366 236.808823,37.292366 
	C236.808823,40.566372 236.808823,43.533161 236.808838,47.483734 
M236.913605,34.327446 
	C238.753998,34.601215 240.594391,34.874981 242.585770,35.171207 
	C242.585770,33.098328 242.585770,31.712549 242.585770,29.957706 
	C240.031342,30.552641 236.227203,28.066658 236.913605,34.327446 
z"/>
<path fill="#E2415A" opacity="1.000000" stroke="none" 
	d="
M52.097984,20.102543 
	C57.073689,17.371506 61.697720,12.864005 66.380203,12.802450 
	C70.830437,12.743948 75.349007,17.321548 79.824440,19.883509 
	C85.457314,23.108047 90.985825,26.531057 96.740051,29.520681 
	C99.681015,31.048666 100.824409,32.925266 100.572212,36.200794 
	C100.292633,39.832031 100.508263,43.501396 100.508263,47.771935 
	C98.989052,47.106998 97.826714,46.719521 96.784065,46.122875 
	C87.827927,40.997768 78.812813,35.967411 69.998947,30.606812 
	C67.156174,28.877834 65.117737,28.988939 62.332779,30.682188 
	C53.944519,35.782238 45.358608,40.557495 36.841839,45.445583 
	C35.442253,46.248852 34.002556,46.982227 32.003666,48.059166 
	C32.003666,42.803150 31.799503,38.182213 32.137871,33.601349 
	C32.229958,32.354664 33.735603,30.869719 34.971104,30.109125 
	C40.496586,26.707542 46.158928,23.528276 52.097984,20.102543 
z"/>
<path fill="#E2415A" opacity="1.000000" stroke="none" 
	d="
M85.758865,46.265976 
	C88.949379,48.120014 91.688675,50.131199 94.742447,51.362377 
	C99.728653,53.372643 101.142471,56.814041 100.576851,61.885235 
	C100.050102,66.607948 96.167641,68.918755 91.955719,66.503777 
	C84.455353,62.203335 76.923561,57.948467 69.566490,53.412464 
	C67.070129,51.873329 65.240105,51.907700 62.784866,53.412430 
	C55.414520,57.929470 47.905338,62.221680 40.416481,66.542953 
	C36.180542,68.987206 32.486046,66.648514 31.905254,61.826824 
	C31.286295,56.688293 33.020374,53.690407 37.676525,51.276840 
	C46.377579,46.766560 54.671917,41.476822 63.296825,36.809563 
	C64.793686,35.999554 67.423225,35.986305 68.948235,36.756363 
	C74.580475,39.600380 79.968826,42.927391 85.758865,46.265976 
z"/>
<path fill="#E3425B" opacity="1.000000" stroke="none" 
	d="
M86.760857,70.352432 
	C87.041237,71.379089 87.325638,72.685562 86.937263,72.932060 
	C83.574554,75.066368 80.234917,77.369110 76.573990,78.838112 
	C75.058037,79.446396 72.411224,78.666008 70.918533,77.611488 
	C67.590935,75.260712 64.700653,75.129776 61.573986,77.712761 
	C58.992889,79.845032 56.463879,79.896233 53.601006,77.848831 
	C50.544464,75.662926 47.156216,73.940849 43.364712,71.691101 
	C50.732491,67.429565 57.392910,63.410698 64.251549,59.764725 
	C65.475693,59.113983 67.771828,59.538605 69.143906,60.270771 
	C75.001305,63.396397 80.697777,66.823616 86.760857,70.352432 
z"/>
<path fill="#333031" opacity="1.000000" stroke="none" 
	d="
M132.191757,51.863205 
	C130.368378,52.199440 128.029297,52.206924 127.784935,52.926125 
	C126.376373,57.071766 123.322899,56.030613 120.067108,55.790180 
	C123.526299,47.918873 126.821205,40.169399 130.399841,32.553242 
	C130.929306,31.426401 132.806793,30.303097 134.047607,30.317265 
	C135.292175,30.331470 137.119766,31.488298 137.658798,32.631447 
	C141.193680,40.128147 144.448669,47.756813 147.968658,55.735954 
	C144.622604,56.076607 141.998627,56.859619 140.027954,52.887947 
	C139.405670,51.633801 135.206024,52.154675 132.191757,51.863205 
M131.263748,46.957970 
	C133.370895,46.957970 135.478027,46.957970 138.007416,46.957970 
	C136.718643,43.911282 135.609528,41.289299 133.944031,37.352001 
	C132.495392,41.318176 131.509277,44.017986 131.263748,46.957970 
z"/>
<path fill="#312E2F" opacity="1.000000" stroke="none" 
	d="
M191.306244,53.328846 
	C187.504578,54.660553 183.976517,55.710667 180.448471,56.760780 
	C180.188461,56.323925 179.928436,55.887070 179.668427,55.450214 
	C179.668427,57.724705 179.668427,59.999191 179.668427,62.643890 
	C177.619461,62.643890 175.932770,62.643890 174.024094,62.643890 
	C174.024094,54.336498 174.024094,46.045982 174.024094,36.935005 
	C178.186539,36.935005 182.568558,36.420620 186.778442,37.052681 
	C193.494904,38.061073 195.691574,45.945175 191.306244,53.328846 
M179.488327,47.234444 
	C181.116241,48.505722 182.598724,50.299992 184.437943,50.811523 
	C185.266708,51.042019 187.882629,48.620125 187.790344,47.568111 
	C187.621597,45.644531 186.458679,42.802231 184.966248,42.206112 
	C181.665924,40.887878 179.702728,42.987335 179.488327,47.234444 
z"/>
<path fill="#322F30" opacity="1.000000" stroke="none" 
	d="
M157.002075,37.559280 
	C161.814987,35.760384 165.738113,36.487690 168.622757,40.203289 
	C171.418335,43.804169 171.471741,47.923561 169.212494,51.894981 
	C166.946304,55.878586 163.423218,56.869370 156.747833,55.484325 
	C156.630920,57.798557 156.516312,60.067169 156.384720,62.671974 
	C154.585464,62.671974 152.898529,62.671974 151.105728,62.671974 
	C151.001282,62.135601 150.831314,61.666676 150.830322,61.197403 
	C150.813873,53.383450 150.818604,45.569450 150.818604,37.028904 
	C152.812866,37.170525 154.672455,37.302578 157.002075,37.559280 
M164.497498,44.149471 
	C161.144455,41.100197 158.100067,40.958179 156.962769,44.114853 
	C156.381332,45.728725 156.570770,48.241966 157.508514,49.580223 
	C158.228271,50.607407 161.504349,51.274265 162.163559,50.616993 
	C163.563629,49.221062 163.999054,46.857616 164.497498,44.149471 
z"/>
<path fill="#363334" opacity="1.000000" stroke="none" 
	d="
M263.742828,47.605896 
	C264.228271,38.876598 267.751892,36.024513 275.818848,37.129078 
	C278.183777,37.452896 280.630554,37.178902 283.304871,37.178902 
	C283.304871,43.339878 283.304871,49.412861 283.304871,56.177990 
	C279.361267,56.177990 275.509674,56.449268 271.712799,56.109386 
	C266.956635,55.683632 264.374908,52.698017 263.742828,47.605896 
M277.470642,48.824493 
	C278.475067,46.015141 278.358185,43.215923 275.238312,42.244545 
	C273.794769,41.795090 270.847565,42.728664 270.240967,43.896706 
	C269.456116,45.408012 269.684326,49.016438 270.630554,49.510284 
	C272.309967,50.386753 274.858124,49.598598 277.470642,48.824493 
z"/>
<path fill="#2F2C2D" opacity="1.000000" stroke="none" 
	d="
M213.984802,50.725693 
	C211.455902,41.142265 216.171997,35.972637 225.606476,37.248783 
	C227.902252,37.559322 230.302902,37.094570 232.927887,36.973755 
	C232.927887,43.393532 232.927887,49.438660 232.927887,56.178551 
	C226.552780,54.266644 218.703003,59.631149 213.984802,50.725693 
M227.044800,48.711662 
	C226.260056,46.480610 225.475296,44.249561 224.690536,42.018517 
	C222.943237,42.639172 220.241165,42.810932 219.685867,43.992023 
	C218.961853,45.531937 219.329819,49.102577 220.320938,49.593735 
	C222.020233,50.435825 224.566681,49.568413 227.044800,48.711662 
z"/>
<path fill="#343132" opacity="1.000000" stroke="none" 
	d="
M346.078552,53.030815 
	C342.058136,56.612465 337.878784,57.244007 333.405731,54.949261 
	C329.742249,53.069839 328.283661,49.757679 328.522766,45.849152 
	C328.792633,41.437843 331.241211,38.340870 335.486938,37.094898 
	C339.645538,35.874500 343.556213,36.857368 346.248596,40.296448 
	C349.352112,44.260719 349.196991,48.577881 346.078552,53.030815 
M341.390991,50.048771 
	C343.573395,47.497646 343.682190,44.703445 341.005219,42.803528 
	C339.817841,41.960789 336.490845,42.069347 335.861725,42.962421 
	C334.781250,44.496231 334.167847,47.534092 335.020844,48.909531 
	C335.803406,50.171379 338.780548,50.072224 341.390991,50.048771 
z"/>
<path fill="#434041" opacity="1.000000" stroke="none" 
	d="
M325.327515,35.471951 
	C323.359222,35.882565 321.735931,36.013489 319.661652,36.180786 
	C319.661652,42.775658 319.661652,49.201088 319.661652,55.837532 
	C317.417267,55.837532 315.643280,55.837532 313.406433,55.837532 
	C313.406433,49.301373 313.406433,42.868122 313.406433,36.194092 
	C311.367188,36.017464 309.757202,35.878017 307.762573,35.705254 
	C307.762573,33.972942 307.762573,32.268139 307.762573,30.323547 
	C313.712921,30.323547 319.472168,30.323547 325.672577,30.323547 
	C325.672577,32.028923 325.672577,33.610592 325.327515,35.471951 
z"/>
<path fill="#333031" opacity="1.000000" stroke="none" 
	d="
M355.580017,54.760723 
	C350.714417,50.342079 349.792786,45.873688 352.511810,41.340523 
	C354.883636,37.386219 360.266357,35.596230 364.734711,37.275890 
	C368.988129,38.874744 371.626129,43.446175 370.955627,48.056129 
	C369.981445,54.754189 363.436005,57.760338 355.580017,54.760723 
M356.860077,45.662525 
	C358.091644,47.482891 359.323181,49.303253 360.554749,51.123600 
	C362.123352,49.983292 364.647644,49.078266 365.001984,47.639019 
	C365.385468,46.081360 364.245392,43.217640 362.874237,42.366879 
	C360.542542,40.920124 358.092712,41.920303 356.860077,45.662525 
z"/>
<path fill="#343233" opacity="1.000000" stroke="none" 
	d="
M256.815918,45.066643 
	C258.373352,47.309566 260.826294,49.745586 260.406921,51.491745 
	C259.952118,53.385353 257.034271,55.341602 254.811295,56.010651 
	C251.002426,57.157036 247.666687,55.727833 245.046677,50.466225 
	C248.875305,50.764919 251.807114,50.993645 256.181549,51.334923 
	C251.880157,47.273136 244.706757,47.392841 246.544388,40.745937 
	C247.023178,39.014069 250.030991,37.295719 252.144394,36.856415 
	C255.622665,36.133404 258.642639,37.555954 260.161407,42.281658 
	C257.360931,42.096516 254.986298,41.939522 252.611649,41.782528 
	C252.386780,42.040760 252.161926,42.298988 251.937073,42.557220 
	C253.440125,43.356770 254.943176,44.156322 256.815918,45.066643 
z"/>
<path fill="#302E2E" opacity="1.000000" stroke="none" 
	d="
M202.856674,51.091171 
	C202.856628,52.839096 202.856628,54.138199 202.856628,55.717529 
	C200.827744,55.717529 199.119324,55.717529 197.195374,55.717529 
	C197.195374,49.600895 197.195374,43.539886 197.195374,36.563808 
	C199.537872,37.223686 201.571991,37.796696 204.355316,38.580750 
	C205.385895,38.171452 207.697449,37.253391 210.530869,36.128067 
	C210.700027,38.462845 210.803604,39.892258 210.932419,41.670059 
	C205.679993,42.410835 202.203522,44.785931 202.856674,51.091171 
z"/>
<path fill="#322F30" opacity="1.000000" stroke="none" 
	d="
M374.138977,34.225685 
	C373.380188,28.882113 376.738159,29.983767 379.721008,30.120298 
	C379.721008,38.613270 379.721008,47.121445 379.721008,55.824715 
	C378.020325,55.824715 376.420807,55.824715 374.138916,55.824715 
	C374.138916,48.790951 374.138916,41.744968 374.138977,34.225685 
z"/>
<path fill="#322F30" opacity="1.000000" stroke="none" 
	d="
M287.182251,54.594658 
	C287.147430,46.222794 287.147430,38.318970 287.147430,30.186970 
	C289.187561,30.093050 290.796143,30.018997 292.716553,29.930590 
	C292.716553,38.598137 292.716553,47.107338 292.716553,56.342678 
	C290.739471,55.882519 288.978271,55.472610 287.182251,54.594658 
z"/>
<path fill="#322F30" opacity="1.000000" stroke="none" 
	d="
M236.808838,46.991844 
	C236.808823,43.533161 236.808823,40.566372 236.808823,37.292366 
	C238.779144,37.292366 240.513046,37.292366 242.556122,37.292366 
	C242.556122,43.275391 242.556122,49.327145 242.556122,55.788834 
	C240.846725,55.870522 239.120850,55.952995 236.808838,56.063477 
	C236.808838,53.013702 236.808838,50.248718 236.808838,46.991844 
z"/>
<path fill="#322F30" opacity="1.000000" stroke="none" 
	d="
M236.867722,33.871071 
	C236.227203,28.066658 240.031342,30.552641 242.585770,29.957706 
	C242.585770,31.712549 242.585770,33.098328 242.585770,35.171207 
	C240.594391,34.874981 238.753998,34.601215 236.867722,33.871071 
z"/>
<path fill="#EFEFEF" opacity="1.000000" stroke="none" 
	d="
M130.893463,46.837883 
	C131.509277,44.017986 132.495392,41.318176 133.944031,37.352001 
	C135.609528,41.289299 136.718643,43.911282 138.007416,46.957970 
	C135.478027,46.957970 133.370895,46.957970 130.893463,46.837883 
z"/>
<path fill="#F5F5F5" opacity="1.000000" stroke="none" 
	d="
M179.449158,46.856846 
	C179.702728,42.987335 181.665924,40.887878 184.966248,42.206112 
	C186.458679,42.802231 187.621597,45.644531 187.790344,47.568111 
	C187.882629,48.620125 185.266708,51.042019 184.437943,50.811523 
	C182.598724,50.299992 181.116241,48.505722 179.449158,46.856846 
z"/>
<path fill="#F6F6F6" opacity="1.000000" stroke="none" 
	d="
M164.663727,44.520142 
	C163.999054,46.857616 163.563629,49.221062 162.163559,50.616993 
	C161.504349,51.274265 158.228271,50.607407 157.508514,49.580223 
	C156.570770,48.241966 156.381332,45.728725 156.962769,44.114853 
	C158.100067,40.958179 161.144455,41.100197 164.663727,44.520142 
z"/>
<path fill="#F6F5F5" opacity="1.000000" stroke="none" 
	d="
M277.256714,49.165688 
	C274.858124,49.598598 272.309967,50.386753 270.630554,49.510284 
	C269.684326,49.016438 269.456116,45.408012 270.240967,43.896706 
	C270.847565,42.728664 273.794769,41.795090 275.238312,42.244545 
	C278.358185,43.215923 278.475067,46.015141 277.256714,49.165688 
z"/>
<path fill="#F6F6F6" opacity="1.000000" stroke="none" 
	d="
M226.901123,49.065208 
	C224.566681,49.568413 222.020233,50.435825 220.320938,49.593735 
	C219.329819,49.102577 218.961853,45.531937 219.685867,43.992023 
	C220.241165,42.810932 222.943237,42.639172 224.690536,42.018517 
	C225.475296,44.249561 226.260056,46.480610 226.901123,49.065208 
z"/>
<path fill="#F4F3F3" opacity="1.000000" stroke="none" 
	d="
M341.090881,50.310745 
	C338.780548,50.072224 335.803406,50.171379 335.020844,48.909531 
	C334.167847,47.534092 334.781250,44.496231 335.861725,42.962421 
	C336.490845,42.069347 339.817841,41.960789 341.005219,42.803528 
	C343.682190,44.703445 343.573395,47.497646 341.090881,50.310745 
z"/>
<path fill="#F6F6F6" opacity="1.000000" stroke="none" 
	d="
M356.928772,45.250637 
	C358.092712,41.920303 360.542542,40.920124 362.874237,42.366879 
	C364.245392,43.217640 365.385468,46.081360 365.001984,47.639019 
	C364.647644,49.078266 362.123352,49.983292 360.554749,51.123608 
	C359.323181,49.303253 358.091644,47.482891 356.928772,45.250637 
z"/>
</svg>