<?xml version="1.0" encoding="UTF-8" standalone="no"?>
<svg
   xmlns:dc="http://purl.org/dc/elements/1.1/"
   xmlns:cc="http://creativecommons.org/ns#"
   xmlns:rdf="http://www.w3.org/1999/02/22-rdf-syntax-ns#"
   xmlns:svg="http://www.w3.org/2000/svg"
   xmlns="http://www.w3.org/2000/svg"
   xmlns:sodipodi="http://sodipodi.sourceforge.net/DTD/sodipodi-0.dtd"
   xmlns:inkscape="http://www.inkscape.org/namespaces/inkscape"
   width="500.0014"
   height="105.30666"
   viewBox="0 0 400.00112 84.245325"
   version="1.1"
   id="svg2"
   inkscape:version="0.47 r22583"
   sodipodi:docname="UB.svg">
  <metadata
     id="metadata53">
    <rdf:RDF>
      <cc:Work
         rdf:about="">
        <dc:format>image/svg+xml</dc:format>
        <dc:type
           rdf:resource="http://purl.org/dc/dcmitype/StillImage" />
      </cc:Work>
    </rdf:RDF>
  </metadata>
  <defs
     id="defs51">
    <inkscape:perspective
       sodipodi:type="inkscape:persp3d"
       inkscape:vp_x="0 : 609.375 : 1"
       inkscape:vp_y="0 : 1000 : 0"
       inkscape:vp_z="6091.25 : 609.375 : 1"
       inkscape:persp3d-origin="3045.625 : 406.25 : 1"
       id="perspective55" />
  </defs>
  <sodipodi:namedview
     pagecolor="#ffffff"
     bordercolor="#666666"
     borderopacity="1"
     objecttolerance="10"
     gridtolerance="10"
     guidetolerance="10"
     inkscape:pageopacity="0"
     inkscape:pageshadow="2"
     inkscape:window-width="1280"
     inkscape:window-height="750"
     id="namedview49"
     showgrid="false"
     inkscape:zoom="4.0119204"
     inkscape:cx="97.234301"
     inkscape:cy="122.06575"
     inkscape:window-x="-8"
     inkscape:window-y="-8"
     inkscape:window-maximized="1"
     inkscape:current-layer="svg2" />
  <g
     id="g2902"
     transform="scale(0.08640546,0.08640546)">
    <g
       id="#00579cff">
      <path
         id="path8"
         d="m 772.82,0 51.35,0 c 4.3,1.32 8.86,0.74 13.25,1.51 58.41,5.68 116.33,23.22 165.79,55.27 19.93,12.88 38.1,28.39 54.55,45.46 12.61,14.27 24.68,29.15 34.48,45.53 6.34,9.7 11.24,20.22 16.44,30.56 15.04,32.25 24.03,67.17 27.58,102.53 0.98,5.71 0.53,11.55 1.55,17.26 0.54,6.94 0.07,13.92 0.22,20.89 -0.19,8.04 0.58,16.15 -0.77,24.12 -0.81,20.61 -3.97,41.05 -7.81,61.3 -2.12,12.07 -5.85,23.77 -8.25,35.78 -24.31,97.33 -48.66,194.66 -72.99,291.99 -3.99,18.03 -8.85,35.86 -13.19,53.81 -3,11.52 -5.91,23.37 -12.59,33.41 -4.9,7.87 -11.33,14.66 -18.4,20.61 -16.89,13.5 -38.66,19.82 -60.08,20.02 -9.11,-0.81 -18.29,-1.99 -26.96,-5.03 -9.06,-3.56 -18.18,-7.86 -24.77,-15.25 -9.56,-8.41 -14.74,-21.08 -15.52,-33.64 -1.05,-7.88 1.14,-15.75 3.09,-23.33 11.54,-46.14 23.06,-92.27 34.61,-138.4 5.03,-19.48 9.37,-39.12 14.38,-58.6 16.79,-67.2 33.62,-134.39 50.39,-201.59 4.07,-16.46 6.6,-33.27 7.79,-50.17 -0.3,-13.02 0.74,-26.1 -0.95,-39.04 -1.73,-16.18 -5.38,-32.25 -11.72,-47.29 -5.55,-14.6 -14.1,-27.92 -24.39,-39.63 -2.91,-4.41 -7.64,-6.99 -11.17,-10.81 -1.66,-1.68 -3.38,-3.31 -5.28,-4.7 -10.85,-8.26 -22.43,-15.8 -35.11,-20.93 -11.03,-5.43 -22.8,-9.24 -34.68,-12.31 -16.46,-4.71 -33.43,-7.76 -50.54,-8.55 -7.64,-1.38 -15.41,-0.52 -23.11,-0.81 -6.06,-0.29 -11.98,1.32 -18.03,1.14 -28.28,2.7 -56.27,9 -82.86,19.02 -17.61,6.13 -34.28,14.52 -50.68,23.3 -19.52,11.61 -38.47,24.4 -55.2,39.82 -5.78,5.88 -11.69,11.64 -17.48,17.52 -11.27,13.16 -21.88,27.25 -28.57,43.36 -7.22,23.52 -13.32,47.38 -19.95,71.07 -8.05,30.66 -16.32,61.25 -24.02,92 -9.29,34.78 -17.73,69.79 -27.57,104.43 -4.44,14.53 -8.92,29.06 -13.42,43.57 -2.06,7.95 -3.72,16.13 -7.53,23.48 -11.96,26.21 -37.93,44.95 -66.11,49.86 -19.19,3.73 -40.03,1.15 -56.74,-9.37 -4.86,-3.75 -10.14,-7.22 -13.67,-12.35 -7.4,-8.65 -11.58,-19.67 -13.09,-30.87 -0.21,-5.28 -2.29,-10.74 -0.01,-15.86 22.95,-75.21 41.18,-151.74 61.24,-227.75 11.16,-42.86 22.28,-85.74 34.77,-128.24 2.75,-10.41 7.29,-20.24 12.24,-29.77 13.48,-28.26 32.07,-53.84 52.92,-77.1 8.17,-8.15 16.31,-16.34 24.5,-24.48 13,-11.06 25.84,-22.39 39.96,-32.04 7.07,-5.82 15.18,-10.11 22.68,-15.33 29.97,-19 62.12,-34.44 95.48,-46.51 8.24,-2.74 16.26,-6.19 24.7,-8.34 17.73,-5.24 35.64,-9.96 53.86,-13.16 14.09,-2.95 28.44,-4.25 42.7,-6.2 4.22,-0.48 8.58,0.19 12.69,-1.17 z"
         style="fill:#00579c" />
    </g>
    <path
       d="m 176.12,146.24 c 4.99,-0.17 9.9,-1.35 14.9,-1.28 13.04,1.19 26.29,3.11 38.23,8.82 8.16,4.39 16.32,9.6 21.35,17.63 7.21,9.14 7.71,21.65 5.43,32.62 -6.44,24.96 -12.28,50.09 -19.04,74.97 -7.5,30.14 -15.06,60.26 -22.58,90.39 -5.6,22.93 -11.9,45.67 -17.41,68.61 -6.51,26.14 -13.11,52.26 -19.59,78.41 -5.61,20.64 -10.58,41.45 -15.8,62.2 -5.91,22.3 -10.55,45.12 -10.88,68.26 -1.1,6.02 -0.84,12.13 0.06,18.16 0.37,24.2 5.81,48.3 15.88,70.31 4.89,8.89 9.7,17.91 16.21,25.77 5.02,5.63 9.58,11.75 15.55,16.45 6.61,5.09 12.78,10.84 20.14,14.89 7.7,4.9 15.9,8.92 24.15,12.81 18.59,7.31 37.84,13.02 57.53,16.44 18.35,2.63 36.95,4.43 55.48,2.95 46.44,-2.8 92.07,-16.13 133.27,-37.65 24.43,-12.38 46.83,-28.55 67.27,-46.72 11.57,-11.19 22.66,-22.99 31.55,-36.47 5.42,-8.24 11.24,-16.54 13.75,-26.22 24.4,-84.3 45.07,-169.61 67.67,-254.39 4.65,-16.73 10.25,-33.17 15.15,-49.83 4.66,-15.38 11.92,-30.22 22.68,-42.27 5.72,-7.67 13.59,-13.35 21.53,-18.51 17.06,-10.94 37.94,-15.1 57.99,-13.18 9.61,1.16 19.23,3.51 27.76,8.22 10.64,4.97 19.93,13.2 25.37,23.67 5.36,9.87 5.47,21.77 3.11,32.5 -15.23,50.71 -28.76,101.91 -41.82,153.21 -18.02,69.03 -35.35,138.25 -55.22,206.79 -1.71,6.2 -4.29,12.12 -7.03,17.93 -4.74,11.42 -10.94,22.15 -17.32,32.72 -11.33,18.5 -24.26,36.06 -39.08,51.92 -6.04,7.58 -13.48,13.87 -20.11,20.91 -13.27,12.13 -26.98,23.85 -41.54,34.44 -22.89,16.92 -47.59,31.26 -73.03,43.95 -11.8,5.27 -23.44,10.92 -35.54,15.48 -10.53,4.56 -21.6,7.65 -32.36,11.58 -16.64,5.4 -33.63,9.53 -50.68,13.35 -6.49,1.27 -13.05,2.09 -19.51,3.48 -9.94,1.78 -20.02,2.52 -29.99,4.06 -5.11,0.91 -10.42,-0.23 -15.41,1.38 l -51.36,0 c -1.91,-0.53 -3.85,-0.9 -5.82,-0.94 -7.35,-0.13 -14.55,-1.87 -21.88,-2.28 -22.18,-3 -44.2,-7.48 -65.51,-14.39 -24,-6.94 -46.87,-17.33 -68.82,-29.18 -15.82,-9.06 -30.74,-19.61 -44.89,-31.1 -4.37,-3.97 -9.17,-7.47 -13.17,-11.85 C 86.41,878.6 79.36,872.6 73.64,865.37 35.4,821.95 11.39,766.74 3.44,709.56 1.86,700.5 1.59,691.26 0,682.22 L 0,629.8 c 0.94,-3.49 0.85,-7.11 1.22,-10.66 2.68,-25.71 6.52,-51.43 13.56,-76.35 10.89,-42.84 21.17,-85.85 32.44,-128.59 8.57,-34.41 17.18,-68.81 25.8,-103.21 8.1,-30.21 15.25,-60.68 22.99,-90.99 2.04,-7.49 3.2,-15.31 6.64,-22.34 3.91,-8.03 8.09,-16.19 14.61,-22.44 3.22,-3.1 6.22,-6.42 9.6,-9.34 13.91,-11.38 31.51,-17.73 49.26,-19.64 z"
       id="path11"
       style="fill:#da251c" />
    <g
       transform="translate(-243.65001,0)"
       id="g2880">
      <g
         id="#ffffffff">
        <path
           style="fill:#ffffff"
           d="m 2163.24,361.23 c 0.55,0.57 0.55,0.57 0,0 z"
           id="path5" />
      </g>
      <path
         style="fill:#da251c"
         id="path13"
         d="m 1685.22,212.1 c 35.25,-0.08 70.5,0 105.75,-0.04 -17,80.96 -34.09,161.9 -51.05,242.86 -3.32,16.18 -7.73,32.42 -7.02,49.07 -0.46,9.08 1.31,18.38 5.78,26.35 4.03,7.26 11.29,12.26 19.01,14.99 7.12,2.86 14.85,3.43 22.38,4.5 9.75,0.78 19.54,0.13 29.17,-1.53 12.09,-1.52 23.52,-6.64 33.35,-13.72 13.99,-11.29 21.61,-28.25 26.99,-44.97 3.2,-10.36 5.06,-21.05 7.41,-31.61 17.27,-81.78 34.42,-163.61 51.63,-245.39 1.24,-0.87 2.88,-0.43 4.34,-0.57 34.05,0.12 68.1,-0.09 102.14,0.1 -3.97,21.64 -9.06,43.06 -13.34,64.63 -9.32,44.05 -18.56,88.11 -27.85,132.16 -4.57,21.14 -8.59,42.4 -13.51,63.46 -5.24,22.29 -12.28,44.22 -22.03,64.96 -8.66,16.83 -19.99,32.27 -33.62,45.41 -30.31,28.13 -69.36,46.38 -110.15,52.81 -7.16,1.18 -14.36,2.41 -21.64,2.42 -10.23,1.68 -20.64,0.6 -30.96,0.94 -5.73,0.37 -11.3,-1.39 -17.02,-1.07 -21.23,-2.31 -42.48,-7.31 -61.43,-17.4 -15.45,-8.03 -29.1,-19.52 -39.53,-33.47 -12.75,-17.82 -18.92,-40.15 -17.94,-61.99 -0.26,-10.45 0.09,-20.87 1.6,-31.22 3.05,-24.68 9.07,-48.83 13.96,-73.17 13.12,-61.94 25.96,-123.93 39.13,-185.85 1.25,-7.6 3.58,-15 4.45,-22.66 z" />
      <path
         style="fill:#da251c"
         id="path15"
         d="m 2456.22,212.07 c 33.58,0 67.15,-0.01 100.74,0.01 -5.68,27.3 -11.48,54.56 -17.23,81.84 -33.57,0 -67.13,0 -100.69,0 5.9,-27.24 11.54,-54.55 17.18,-81.85 z" />
      <path
         style="fill:#da251c"
         id="path17"
         d="m 3475.66,212.67 c 1.14,-0.98 2.83,-0.45 4.3,-0.63 67.68,0.08 135.36,0 203.04,0.03 4.4,0.06 8.87,-0.35 13.24,0.63 20.97,0.89 42.15,4.28 61.65,12.42 16.55,7.16 31.43,20.11 37.51,37.47 4.37,12.94 5.74,26.9 3.73,40.42 -0.85,10.77 -3.49,21.3 -6.48,31.64 -3.92,10.7 -8.89,21.14 -15.6,30.38 -4.6,7.24 -11.54,12.49 -17.3,18.72 -12.7,10.45 -27.29,18.65 -42.9,23.84 11.43,3.22 22.63,8.08 31.82,15.73 4.26,4.07 8.95,7.83 12.15,12.86 8.11,11.55 12.82,25.64 12.09,39.83 0.42,9.7 -0.97,19.36 -3.08,28.8 -5.08,20.07 -13.79,39.27 -26.02,56 -6.51,9.34 -15.04,16.96 -23.06,24.94 -15.11,12.98 -32.59,23.36 -51.62,29.37 -14.86,5.29 -30.48,8.08 -46.12,9.7 -6.38,0.22 -12.65,1.6 -19.05,1.11 -13.22,1.98 -26.66,0.35 -39.96,1.19 -9.59,1.55 -19.35,0.52 -29,0.81 -48.92,0.05 -97.84,-0.09 -146.75,0.07 29.1,-138.44 58.12,-276.94 87.41,-415.33 m 84.58,84.42 c -0.47,4.29 -1.44,8.51 -2.42,12.71 -4.55,21.39 -8.91,42.82 -13.58,64.18 27.92,0.21 55.84,0.04 83.77,0.09 12.46,0.38 25.19,-1.31 36.67,-6.38 8.17,-3.49 15.29,-9.58 19.65,-17.36 3.79,-7.16 7.06,-15.07 6.59,-23.33 0,-4.97 0.5,-10.26 -2.23,-14.69 -2.46,-5.7 -7.89,-9.25 -13.38,-11.63 -7.74,-2.94 -16.07,-4.14 -24.31,-3.77 -30.26,0.11 -60.52,-0.24 -90.76,0.18 m -33.01,157.03 c -0.63,6.27 -2.49,12.31 -3.66,18.48 -2.59,12.69 -5.28,25.35 -7.99,38.01 -2.05,11.11 -5.03,22.05 -6.67,33.24 29.69,0.51 59.39,0.04 89.09,0.24 15.11,-0.94 30.65,-2.77 44.33,-9.75 12.67,-7.2 20.4,-20.89 23.08,-34.91 3.52,-12.34 1.97,-27.72 -8.67,-36.18 -12.16,-8.23 -27.4,-10.04 -41.74,-9.33 -29.26,0.12 -58.52,-0.25 -87.77,0.2 z" />
      <path
         style="fill:#da251c"
         id="path19"
         d="m 4587.09,212.09 c 33.01,0 66.03,-0.09 99.05,0.04 -0.42,2.55 -0.88,5.09 -1.35,7.63 -4.87,22.25 -9.33,44.58 -14.16,66.84 -9.35,45.87 -19.47,91.58 -28.71,137.47 5.88,-3.33 9.77,-9.02 15.09,-13.08 5.06,-3.88 8.89,-9.14 14.1,-12.89 4.59,-4.07 8.65,-8.71 13.61,-12.39 3.11,-2.86 5.85,-6.14 9.27,-8.7 4.7,-3.59 8.27,-8.44 13.01,-12.02 4.32,-3.3 7.66,-7.68 11.99,-10.99 3.55,-2.74 6.5,-6.15 9.76,-9.23 5.84,-4.45 10.57,-10.15 16.37,-14.66 3.36,-2.63 5.88,-6.2 9.32,-8.78 10.81,-0.6 21.7,-0.04 32.56,-0.23 28.66,-0.13 57.34,0.27 86,-0.22 l 0,0.76 c -39.16,34.95 -78.31,69.93 -117.45,104.91 -4.51,3.34 -7.89,7.98 -12.68,10.94 4.55,13.35 10.29,26.26 15.12,39.51 16.63,42.1 32.9,84.34 49.57,126.42 2.91,8.59 6.95,16.75 9.66,25.41 -37.34,0.18 -74.68,0.05 -112.02,0.07 -14.74,-40.65 -29.6,-81.27 -44.45,-121.88 -3.72,2.47 -6.89,5.61 -10.3,8.44 -9.15,7.85 -18.3,15.69 -27.46,23.53 -2.62,2.33 -6.16,4.34 -7.01,7.95 -5.79,26.97 -11.27,54.01 -17.15,80.96 -33,0.04 -66,0.07 -99,-0.01 0.45,-4.61 1.51,-9.12 2.42,-13.65 23.67,-112.06 47.13,-224.17 70.75,-336.24 4.76,-21.95 8.97,-44.03 14.09,-65.91 z" />
      <path
         style="fill:#da251c"
         id="path21"
         d="m 2731.39,310.41 c 6.83,-0.76 13.74,-0.15 20.61,-0.34 7.02,0.21 14.13,-0.57 21.1,0.67 17.43,2.01 35.18,5.09 50.93,13.2 9.44,3.81 17.74,10 25.41,16.61 3.53,2.42 6.31,5.72 8.88,9.12 6.27,6.41 10.84,14.28 14.69,22.32 8.08,15.01 10.69,32.21 11.92,48.98 -0.26,7.36 0.55,14.8 -0.74,22.1 -0.46,10.36 -2.57,20.53 -4.43,30.71 -2.89,12.08 -5.75,24.19 -10.19,35.81 -3.15,7.49 -5.7,15.25 -9.56,22.42 -7.33,14.39 -16.08,28.11 -26.77,40.23 -4.68,4.36 -7.97,10 -13.12,13.88 -3.12,2.18 -5.65,5.03 -8.43,7.57 -4.09,3.28 -8.48,6.16 -12.45,9.56 -30.06,21.14 -66.5,32.73 -103.15,34 -12.3,1.69 -24.71,0.21 -37.01,-0.4 -10.18,-1.25 -20.35,-2.9 -30.22,-5.73 -10.59,-3.45 -21.43,-6.96 -30.65,-13.33 -19.33,-11.49 -33.94,-30.22 -41.86,-51.15 -7.18,-19.27 -8.06,-40.08 -7.02,-60.41 0.94,-5.63 0.56,-11.4 1.96,-16.97 6.24,-41.48 21.53,-82.66 49.48,-114.49 4.54,-4.15 7.58,-9.72 12.66,-13.33 3.32,-2.29 5.84,-5.49 8.87,-8.14 14.6,-11.35 30.11,-21.97 47.56,-28.45 19.47,-8.37 40.54,-12.34 61.53,-14.44 m -6.02,77.96 c -7.81,1.29 -15.41,3.86 -22.34,7.66 -7.02,3.71 -12.27,9.68 -17.78,15.23 -14.62,16.9 -22.05,38.52 -27.02,59.97 -2.41,12.11 -4.88,24.36 -4.31,36.77 -0.52,9.1 1.12,18.22 4.34,26.73 3.54,9.49 10.66,18.14 20.39,21.65 12.21,5.22 26.16,4.52 38.75,1 8.77,-3.02 17.46,-7.22 23.87,-14.1 4.1,-4.25 8.61,-8.16 11.9,-13.12 15.35,-21.32 22.14,-47.49 25.72,-73.17 1.91,-12.7 1.76,-25.77 -1.66,-38.21 -2.8,-9.79 -8.03,-19.69 -17.25,-24.76 -10.38,-6.11 -22.9,-7.05 -34.61,-5.65 z" />
      <path
         style="fill:#da251c"
         id="path23"
         d="m 2235.22,316.23 c 16.02,-3.21 32.54,-4.16 48.78,-2.22 15.5,1.43 31.37,5.38 43.79,15.21 13.83,9.95 19.8,27.35 21.12,43.75 -0.21,10.07 1.14,20.23 -0.59,30.24 -1.93,17.97 -6.49,35.5 -9.94,53.2 -8.68,40.42 -16.92,80.95 -25.57,121.39 -3.31,16.28 -6.96,32.5 -10.15,48.8 -0.33,1.73 -2.44,1.19 -3.63,1.36 -32.67,-0.06 -65.34,-0.01 -98,-0.03 8.62,-40.14 16.8,-80.38 25.39,-120.53 3.79,-18.84 8.18,-37.56 11.46,-56.51 1.97,-12.83 4.05,-25.81 2.98,-38.82 -0.96,-5.87 -2.64,-12.57 -8.03,-15.92 -3.75,-2.79 -8.19,-4.59 -12.82,-5.19 -11.81,-2.45 -24.2,-0.6 -35.33,3.74 -6.59,3.33 -13.02,7.52 -17.71,13.28 -13.35,15.64 -18.64,36.07 -23.35,55.62 -9.35,45.23 -18.99,90.4 -28.43,135.61 -2.2,9.54 -3.78,19.21 -6.29,28.68 -33.33,0.07 -66.65,0.08 -99.97,-0.01 0.26,-4.02 1.09,-7.98 2.07,-11.88 19.65,-93.36 39.19,-186.74 58.94,-280.08 1.01,-4.97 1.75,-10 3.18,-14.87 32.94,0.06 65.9,0.08 98.85,0.02 -2.67,13.04 -5.79,26.01 -8.06,39.12 6.48,-5.25 11.48,-12.1 18.19,-17.09 15.06,-13.26 33.6,-22.4 53.12,-26.87 m -71.98,45 c 0.55,0.57 0.55,0.57 0,0 z" />
      <path
         style="fill:#da251c"
         id="path25"
         d="m 3092.32,323.34 c 20.86,-8.72 43.83,-11.53 66.27,-9.91 9.89,0.95 19.86,2.34 29.29,5.66 10.84,3.63 21.19,9.63 28.16,18.88 9.58,12.49 12.28,28.68 12.88,44.03 0.47,6.39 -1.22,12.63 -1.05,19.01 -2.14,20.46 -7.34,40.42 -11.28,60.57 -10.54,49.83 -21.01,99.66 -31.5,149.5 -0.91,5.66 -2.75,11.14 -3.33,16.85 -33.59,-0.02 -67.19,0.05 -100.78,-0.03 -0.04,-6.1 2.22,-11.85 3.11,-17.82 9.27,-44.06 18.54,-88.12 27.83,-132.17 2.58,-12.65 5.09,-25.32 6.76,-38.13 0.48,-5.27 1.73,-10.47 1.41,-15.79 -0.26,-5.21 0.46,-10.5 -0.45,-15.65 -1.65,-4.53 -3.28,-9.71 -7.6,-12.4 -4.52,-3.37 -10.17,-4.57 -15.61,-5.4 -6.71,-1.31 -13.58,-0.63 -20.19,0.75 -6.54,0.72 -12.5,3.69 -18.22,6.72 -4.47,2.35 -7.75,6.25 -11.29,9.71 -6.19,6 -9.61,14.05 -13.4,21.62 -8.9,20.71 -11.81,43.25 -16.9,65.05 -7.9,38.36 -16.21,76.64 -24.06,115.01 -1.4,6.13 -2.83,12.27 -3.59,18.52 -33.64,-0.01 -67.28,0.08 -100.92,-0.05 21.3,-102.32 43.01,-204.57 64.4,-306.87 32.93,0.23 65.87,0 98.8,0.14 -2.38,13.41 -5.88,26.6 -8.05,40.04 13.47,-15.93 30.28,-29.18 49.31,-37.84 z" />
      <path
         style="fill:#da251c"
         id="path27"
         d="m 3944.11,320.11 c 16.28,-4.33 33.14,-5.69 49.86,-7.03 8.33,0.09 16.68,-0.08 25.03,0.07 3.98,0.52 7.97,1.1 12.04,0.95 12.23,0.93 24.3,3.43 36.1,6.75 10.85,3.52 21.16,8.78 30.09,15.91 7.07,6.49 13.53,14.05 16.8,23.23 5.28,12.54 5.37,26.42 4.65,39.78 -2.32,21.76 -6.53,43.29 -11.29,64.65 -5.37,25.9 -10.86,51.78 -16.33,77.66 -2.72,13.96 -6.31,27.77 -7.99,41.91 -0.34,5.34 -0.18,10.7 -0.15,16.05 0.41,5.79 2.12,12.61 7.96,15.2 -1.04,3.99 -1.39,8.15 -2.53,12.11 -1.25,0.95 -2.96,0.42 -4.31,0.61 -32.99,-0.07 -65.99,0.01 -98.98,-0.04 0.23,-5.71 -0.52,-11.5 0.66,-17.14 0.71,-4.58 0.23,-9.23 0.19,-13.84 -16.35,13.65 -34.92,24.62 -54.89,32.06 -15.44,5.15 -31.67,8.68 -48.02,7.91 -16.76,0.65 -34.19,-1.63 -49.02,-9.89 -3.99,-1.77 -7.52,-4.37 -10.73,-7.26 -5.08,-4.99 -10.44,-9.95 -13.64,-16.41 -4.91,-8.14 -7.27,-17.56 -8.03,-26.96 -1.49,-6.44 0.53,-12.88 0.62,-19.33 2.76,-21.31 10.43,-42.18 23.5,-59.36 3.47,-5.1 8.36,-8.97 12.54,-13.46 5.11,-5.7 11.69,-9.79 18.06,-13.94 16.7,-10.3 35.53,-16.5 54.69,-20.31 15.12,-3.21 30.34,-5.95 45.61,-8.39 19.39,-3.47 39.69,-5.86 57.01,-15.99 4.19,-2.11 6.78,-6.46 8.17,-10.8 0.64,-4.29 1.96,-8.47 2.32,-12.8 -0.53,-4.79 -2.73,-9.53 -6.29,-12.82 -2.64,-2.82 -6.57,-3.66 -10.01,-5.01 -10.05,-2.4 -20.6,-3.18 -30.77,-1.15 -12.4,1.49 -24.53,6.69 -33.28,15.72 -4.51,5.14 -7.85,11.09 -10.86,17.18 -31.02,-0.03 -62.04,0.07 -93.06,-0.05 7.18,-19.03 16.63,-37.5 30.41,-52.64 6.89,-6.78 13.39,-14.1 21.55,-19.44 15.57,-11.36 33.65,-19.06 52.32,-23.69 m 25.67,175.63 c -17.37,4.17 -36.05,5.72 -51.37,15.69 -10.01,5.8 -15.85,17.23 -16.58,28.56 -0.89,7.05 -0.14,14.93 4.54,20.62 4.34,5.98 11.52,9.25 18.69,10.25 13.76,1.26 27.83,-1.58 40.26,-7.56 8.31,-4.98 16.9,-10.38 22.42,-18.57 6.31,-7.67 10.23,-17.06 12.28,-26.73 2.38,-11.31 4.87,-22.59 7.07,-33.94 -11.82,5.58 -24.59,8.89 -37.31,11.68 z" />
      <path
         style="fill:#da251c"
         id="path29"
         d="m 4363.79,316.8 c 24.97,-5.61 51.5,-5.25 76.01,2.44 8.42,3.13 16.84,7.23 22.97,14 8.83,8.09 13.76,19.66 15.64,31.34 3.62,21.08 0.51,42.55 -3.49,63.34 -14.09,66.65 -28.02,133.34 -42.08,199.99 -33.65,0.01 -67.31,0.08 -100.96,-0.04 4.33,-23.59 9.82,-46.95 14.53,-70.47 5.15,-23.91 10.02,-47.89 15.2,-71.8 4.04,-20.58 8.91,-41.18 9.85,-62.18 0.95,-3.82 0.47,-7.73 -0.27,-11.53 -0.33,-4.96 -1.83,-10.08 -5.38,-13.69 -3.63,-3.98 -8.88,-5.99 -14.03,-7.01 -11.51,-2.79 -23.67,-1.02 -34.66,2.94 -10.04,4.03 -18.82,11.26 -24.54,20.45 -10.38,15.55 -15.13,33.97 -19,52.03 -11.18,53.79 -22.78,107.5 -33.82,161.32 -33.57,-0.01 -67.14,0.03 -100.7,-0.02 19.54,-93.05 39.04,-186.12 58.69,-279.15 1.65,-9.25 4.31,-18.32 5.5,-27.66 32.94,0 65.89,0 98.83,-0.02 -0.33,6.58 -2.56,12.86 -3.67,19.32 -1.23,6.97 -3.06,13.81 -4.34,20.76 4.05,-3.01 6.21,-7.8 10.25,-10.84 2.65,-1.97 5.16,-4.14 7.46,-6.54 14.82,-13 32.69,-22.69 52.01,-26.98 z" />
      <path
         style="fill:#da251c"
         id="path31"
         d="m 2433.17,321.12 c 33.64,-0.03 67.3,-0.04 100.94,-0.02 -20.11,94.68 -39.8,189.44 -59.86,284.13 -1.21,7.62 -3.69,15 -4.48,22.69 -33.62,-0.01 -67.25,0.08 -100.87,-0.04 17.9,-85.97 36.16,-171.85 54.18,-257.79 3.32,-16.33 7.12,-32.56 10.09,-48.97 z" />
      <path
         style="fill:#da251c"
         id="path33"
         d="m 4059.92,725.8 c 3.34,-0.78 6.77,-0.79 10.15,0.03 5.01,0.13 9.99,0.78 14.98,1.46 -1.07,9.8 -3.75,19.36 -5.58,29.05 -6.1,-0.24 -12.24,-0.85 -18.31,-0.17 -3.39,0.75 -6.97,2.09 -8.81,5.21 -4.54,7.49 -4.72,16.46 -7.12,24.67 9.27,0.1 18.56,-0.05 27.85,0.07 -1.67,8.62 -3.51,17.21 -5.32,25.8 -9.23,0.08 -18.45,-0.14 -27.66,0.16 -5.59,23.79 -10.06,47.84 -15.29,71.71 -4.31,20.71 -8.68,41.41 -13.07,62.1 -11.5,0.12 -22.99,-0.08 -34.48,0.12 8.35,-39 16.37,-78.07 24.66,-117.09 0.77,-5.64 2.84,-11.06 3.14,-16.77 -8.01,-0.43 -16.02,-0.14 -24.01,-0.22 1.56,-8.66 4.09,-17.13 5.19,-25.87 8.16,-0.06 16.35,0.22 24.53,-0.21 3.2,-11.84 4.44,-24.27 9.55,-35.54 3.41,-6.27 7.89,-12.05 13.65,-16.33 7.54,-5.35 16.77,-7.85 25.95,-8.18 z" />
      <path
         style="fill:#da251c"
         id="path35"
         d="m 4192.22,728.09 c 12.27,-0.01 24.56,-0.08 36.85,0.03 -0.84,9.38 -3.75,18.4 -5.32,27.66 -13.34,63.37 -26.78,126.73 -39.98,190.13 -12.28,-0.01 -24.55,0.09 -36.81,-0.06 0.19,-4.57 1.31,-9.01 2.42,-13.42 14.14,-68.15 28.83,-136.17 42.84,-204.34 z" />
      <path
         style="fill:#da251c"
         id="path37"
         d="m 4556.24,728.08 c 11.28,0.02 22.56,-0.09 33.85,0.05 -14.51,70 -29.43,139.9 -44.08,209.87 -0.98,2.5 -0.44,5.83 -2.32,7.79 -10.89,0.33 -21.79,0.03 -32.66,0.13 1.68,-6.24 2.79,-12.61 4.02,-18.95 -7.47,6.01 -14.69,12.47 -23.37,16.72 -9.62,5.29 -20.75,7.62 -31.68,7.24 -14.41,0.41 -29.13,-5.32 -38.72,-16.23 -4.1,-5.19 -7.22,-11.06 -9.89,-17.08 -2.67,-7.25 -3.39,-14.99 -4.26,-22.6 -0.56,-5.7 0.99,-11.28 1.07,-16.96 2.55,-18.82 8.47,-37.32 18.23,-53.64 3.56,-5.93 7.84,-11.37 12.69,-16.3 2.12,-3.52 5.74,-5.56 8.64,-8.37 17.22,-16.03 42.58,-22.45 65.4,-16.88 7.42,2.4 14.84,5.92 20.12,11.85 2.71,2.93 4.9,6.3 7.37,9.46 4.71,-24.19 10.11,-48.26 15.09,-72.4 0.14,-1.24 0.3,-2.47 0.5,-3.7 m -67.88,84.29 c -11.05,2.53 -21.05,9.1 -27.82,18.17 -5.34,7.19 -9.43,15.3 -12.1,23.85 -3.5,11.5 -6.2,23.53 -5.41,35.62 1.08,8.59 3.64,17.71 10.23,23.76 5.21,3.5 11.26,6.39 17.7,6.31 5.34,-0.12 10.84,0.55 16.06,-1.02 9.24,-2.49 17.9,-7.59 24.14,-14.91 13.05,-16.37 18.33,-37.6 19.78,-58.13 -0.41,-7.9 -1.06,-16.46 -5.9,-23.05 -5.29,-7.64 -14.98,-11.36 -24.04,-11.06 -4.23,0.14 -8.5,-0.34 -12.64,0.46 z" />
      <path
         style="fill:#da251c"
         id="path39"
         d="m 4629.22,728.09 c 11.62,0 23.26,-0.1 34.9,0.04 -2.08,11.65 -4.37,23.29 -7.22,34.78 -11.55,0.05 -23.09,-0.12 -34.62,0.09 2.1,-11.68 5.28,-23.15 6.94,-34.91 z" />
      <path
         style="fill:#da251c"
         id="path41"
         d="m 3878.4,777.41 c 13.1,-0.72 26.53,-0.91 39.25,2.88 19.42,5.4 35.91,20.28 42.76,39.32 6.81,19.94 5.11,41.65 -0.03,61.76 -3.33,12.87 -9.69,24.75 -17.7,35.3 -4.7,5.61 -9.34,11.37 -15.33,15.66 -17.75,14.95 -41.43,21.38 -64.35,20.6 -11.04,-0.39 -22.24,-2.02 -32.43,-6.48 -4.44,-1.55 -8.59,-3.8 -12.15,-6.84 -16.4,-11.12 -25.41,-31.11 -25.54,-50.62 -0.88,-4.01 -0.92,-8.02 0.11,-11.99 -0.17,-20.89 6.19,-41.77 17.99,-59.01 11.47,-17.13 28.79,-30.23 48.42,-36.57 6.25,-1.64 12.51,-3.41 19,-4.01 m 2.99,24.99 c -7.11,1.14 -14.41,2.53 -20.6,6.37 -5.69,3.42 -11.32,7.35 -15.13,12.88 -8.83,10.76 -14.29,23.93 -17.67,37.33 -1.92,8.19 -3.58,16.56 -3.1,25.02 -0.56,12.06 2.71,24.94 11.41,33.7 3.63,2.86 7.53,5.54 11.96,7.05 21.53,8.06 47.34,1.13 62.43,-16.06 5.38,-6.88 10.74,-13.98 13.75,-22.27 4.75,-10.86 6.33,-22.71 7.58,-34.39 0.53,-11 -0.1,-22.59 -5.68,-32.38 -6,-9.75 -17.07,-15.64 -28.31,-16.71 -5.49,-0.99 -11.13,-1.54 -16.64,-0.54 z" />
      <path
         style="fill:#da251c"
         id="path43"
         d="m 4743.4,781.43 c 14.45,-0.9 29.34,-0.79 43.2,3.97 7.4,2.74 15.03,6.86 19.01,13.99 2.66,4.37 4.56,9.38 4.35,14.58 0.82,13.29 -3.83,26.01 -6.04,38.96 -3.83,17.86 -7.47,35.77 -11.34,53.63 -0.87,4.38 -1.56,8.9 -0.4,13.3 4.36,1.75 9.16,0.8 13.77,1.23 -1.92,8.45 -3.63,16.93 -5.48,25.39 -10.57,2.63 -21.84,3.64 -32.38,0.44 -4.09,-1.51 -8.13,-3.89 -10.09,-7.92 -2.81,-3.84 -1.97,-8.73 -2.14,-13.15 -15.74,16.07 -38.14,26.5 -60.89,25.06 -11.1,-0.53 -23.17,-3.44 -30.77,-12.11 -4.08,-4.07 -6.58,-9.6 -7.84,-15.15 -0.87,-10.01 -0.61,-20.43 3.44,-29.8 3.25,-10.47 9.98,-19.76 18.78,-26.27 8.46,-6.15 18.37,-9.84 28.4,-12.57 9.82,-2.3 19.74,-4.35 29.81,-5.28 11.02,-1.96 22.88,-2.9 32.26,-9.68 5.62,-3.51 7.13,-10.99 6.13,-17.13 -0.62,-5.34 -4.96,-9.7 -10.03,-11.07 -8.08,-2.95 -16.78,-1.74 -25.17,-1.85 -7.84,1.14 -15.84,3.74 -21.66,9.34 -4.07,4.65 -6.86,10.4 -7.59,16.57 -10.96,0.01 -21.92,0.08 -32.87,-0.03 0.56,-4.89 1.98,-9.64 3.86,-14.18 2.63,-5.72 5.3,-11.62 9.97,-16.01 12.92,-14.86 32.34,-22.78 51.71,-24.26 m 3.18,91.15 c -12.66,3 -25.98,3.06 -38.2,7.81 -6.21,2.59 -12.02,7.11 -14.4,13.6 -2.79,6.63 -4.84,15.06 -0.44,21.47 1.77,3.36 5.55,4.72 8.87,6.13 10.38,2.84 21.48,0.72 31.48,-2.72 12.03,-4.9 22.59,-14.31 27.39,-26.56 2.5,-8.29 4.22,-16.81 5.77,-25.33 -6.82,1.95 -13.44,4.58 -20.47,5.6 z" />
      <path
         style="fill:#da251c"
         id="path45"
         d="m 4310.99,789.98 c 10.89,-6.06 23.66,-8.4 36.05,-7.9 9.99,0.96 20.58,1.93 29.13,7.75 3.64,3.36 7.8,6.66 9.43,11.55 1.84,4.12 2.44,8.59 2.98,13.03 1.13,5.86 -0.85,11.65 -0.78,17.52 -1.63,11.79 -4.61,23.33 -6.88,34.99 -5.44,25.89 -11.02,51.76 -16.27,77.68 -0.32,1.72 -2.49,1.14 -3.62,1.33 -10.39,-0.18 -20.78,0.29 -31.14,-0.08 1.92,-12.3 5.1,-24.36 7.35,-36.6 2.38,-10.71 4.41,-21.49 6.85,-32.18 2.65,-14.21 6.37,-28.22 8.5,-42.51 1.21,-8.61 -3.11,-18.61 -11.99,-21.15 -10.2,-2.91 -21.39,-1.82 -31.21,1.98 -9.32,3.91 -17.36,10.92 -22.24,19.78 -5.4,9.42 -7.21,20.25 -9.23,30.77 -5.85,26.61 -11.07,53.37 -17.04,79.95 -11.55,0.14 -23.09,-0.11 -34.62,0.14 9.49,-44.23 18.53,-88.56 27.98,-132.79 1.81,-9.09 3.69,-18.17 5.88,-27.17 10.97,0.07 21.96,-0.06 32.95,0.05 -0.38,6.79 -2.67,13.27 -3.84,19.94 6.49,-6.27 13.59,-12.1 21.76,-16.08 z" />
      <path
         style="fill:#da251c"
         id="path47"
         d="m 4617.22,786.09 c 11.62,0 23.25,-0.05 34.89,0.01 -10.85,53.32 -22.56,106.45 -33.34,159.77 -11.64,0.09 -23.27,0.08 -34.9,0.01 10.76,-53.33 22.53,-106.47 33.35,-159.79 z" />
    </g>
  </g>
</svg>
